<?xml version="1.0" encoding="UTF-8" standalone="no"?>
<!-- Created with Inkscape (http://www.inkscape.org/) -->

<svg
   xmlns:svg="http://www.w3.org/2000/svg"
   xmlns="http://www.w3.org/2000/svg"
   version="1.1"
   width="20"
   height="20"
   viewBox="0 0 20.000001 20"
   id="Layer_1"
   xml:space="preserve"><defs
   id="defs9" />
<path
   d="m 1.3456,0.076351 c -1.9229,0.52707 -1.203,3.006 -1.2579,4.4938 0.34684,9.4028 -0.1552,6.0268 0.17868,15.43 4.6954,-0.173 -1.3413,0.031 3.2147,-0.069 0.2617,-6.839 -0.0872,2.098 0.1707,-4.862 5.0727,-1.781 13.026,3.65 16.348,-0.797 -1.405,-1.281 1.031,-12.601 -1.584,-11.696 -2.671,0.9244 -12.158,-1.9522 -15.114,-0.3575 0.1879,-1.1936 -0.3289,-2.5582 -1.9564,-2.1421 z"
   id="path3075"
   style="fill:#3d6f55" />
<g
   id="routenum"
   style="font-size:13px;font-style:normal;font-variant:normal;font-weight:bold;font-stretch:normal;text-align:center;line-height:100%;writing-mode:lr-tb;text-anchor:middle;fill:#ffffff;font-family:Bitstream Charter"><path
     d="m 12.253,4.0067 c -3.367,0.013 -5.486,2.21 -5.486,5.525 0,2.457 1.261,3.926 3.25,3.926 1.937,0 3.328,-1.313 3.328,-3.198 0,-1.651 -1.17,-2.847 -2.691,-2.847 -0.728,0 -1.417,0.234 -2.067,0.663 0.325,-1.937 1.404,-3.029 3.12,-3.159 l 0.546,0.052 v -0.962 m -3.744,4.771 c 0.429,-0.221 0.897,-0.325 1.391,-0.325 1.053,0 1.729,0.78 1.729,2.054 0,1.352 -0.611,2.145 -1.456,2.145 -1.053,0 -1.69,-1.04 -1.69,-3.094 0,-0.117 0.013,-0.39 0.026,-0.78"
     id="path2815" /></g>
</svg>