<?xml version="1.0" encoding="UTF-8" standalone="no"?>
<!-- Created with Inkscape (http://www.inkscape.org/) -->

<svg
   xmlns:svg="http://www.w3.org/2000/svg"
   xmlns="http://www.w3.org/2000/svg"
   version="1.1"
   width="20"
   height="20"
   viewBox="0 0 20.000001 20"
   id="Layer_1"
   xml:space="preserve"><defs
   id="defs9" />
<path
   d="m 1.3456,0.076351 c -1.9229,0.52707 -1.203,3.006 -1.2579,4.4938 0.34684,9.4028 -0.1552,6.0268 0.17868,15.43 4.6954,-0.173 -1.3413,0.031 3.2147,-0.069 0.2617,-6.839 -0.0872,2.098 0.1707,-4.862 5.0727,-1.781 13.026,3.65 16.348,-0.797 -1.405,-1.281 1.031,-12.601 -1.584,-11.696 -2.671,0.9244 -12.158,-1.9522 -15.114,-0.3575 0.1879,-1.1936 -0.3289,-2.5582 -1.9564,-2.1421 z"
   id="path3075"
   style="fill:#3d6f55" />
<g
   id="routenum"
   style="font-size:13px;font-style:normal;font-variant:normal;font-weight:bold;font-stretch:normal;text-align:center;line-height:100%;writing-mode:lr-tb;text-anchor:middle;fill:#ffffff;font-family:Bitstream Charter"><path
     d="m 10.667,8.3617 c -1.313,-0.52 -1.95,-1.066 -1.95,-1.885 0,-0.754 0.52,-1.313 1.248,-1.313 0.819,0 1.378,0.65 1.378,1.599 0,0.637 -0.234,1.183 -0.676,1.599 m 0.611,0.299 c 1.014,-0.442 1.534,-1.144 1.534,-2.015 0,-1.287 -1.04,-2.262 -2.717,-2.262 -1.846,0 -3.016,1.001 -3.016,2.483 0,0.923 0.468,1.612 1.378,2.028 -1.144,0.338 -1.755,1.053 -1.755,2.067 0,1.43 1.222,2.522 3.146,2.522 2.093,0 3.315,-1.066 3.315,-2.561 0,-1.092 -0.611,-1.807 -1.885,-2.262 m -2.236,0.546 c 1.664,0.65 2.47,1.144 2.47,2.106 0,0.806 -0.611,1.378 -1.547,1.378 -0.988,0 -1.729,-0.78 -1.729,-1.872 0,-0.637 0.26,-1.118 0.806,-1.612"
     id="path2815" /></g>
</svg>