<?xml version="1.0" encoding="UTF-8" standalone="no"?>
<!-- Created with Inkscape (http://www.inkscape.org/) -->

<svg
   xmlns:svg="http://www.w3.org/2000/svg"
   xmlns="http://www.w3.org/2000/svg"
   version="1.1"
   width="20"
   height="20"
   viewBox="0 0 20.000001 20"
   id="Layer_1"
   xml:space="preserve"><defs
   id="defs10" />
<path
   d="m 1.3456,0.076351 c -1.9229,0.52707 -1.203,3.006 -1.2579,4.4938 0.34684,9.4028 -0.1552,6.0268 0.17868,15.43 4.6954,-0.173 -1.3413,0.031 3.2147,-0.069 0.2617,-6.839 -0.0872,2.098 0.1707,-4.862 5.0727,-1.781 13.026,3.65 16.348,-0.797 -1.405,-1.281 1.031,-12.601 -1.584,-11.696 -2.671,0.9244 -12.158,-1.9522 -15.114,-0.3575 0.1879,-1.1936 -0.3289,-2.5582 -1.9564,-2.1421 z"
   id="path3075"
   style="fill:#3d6f55" />
<g
   id="routenum"
   style="font-size:13px;font-style:normal;font-variant:normal;font-weight:bold;font-stretch:normal;text-align:center;line-height:100%;writing-mode:lr-tb;text-anchor:middle;fill:#ffffff;font-family:Bitstream Charter"><path
     d="m 6.6104,4.4357 -2.808,0.949 v 0.663 l 1.846,-0.273 0.117,0.156 v 6.396 l -0.156,0.234 -1.3,0.078 v 0.65 h 4.511 v -0.65 l -1.222,-0.052 -0.143,-0.208 v -7.943 h -0.845"
     id="path2815" /><path
     d="m 13.735,4.4097 c -2.002,0 -3.289,1.651 -3.289,4.524 0,2.873 1.287,4.511 3.289,4.511 2.015,0 3.315,-1.651 3.315,-4.511 0,-2.86 -1.3,-4.524 -3.315,-4.524 m 0.013,0.728 c 1.027,0 1.534,1.261 1.534,3.783 0,2.522 -0.507,3.783 -1.534,3.783 -1.027,0 -1.534,-1.274 -1.534,-3.822 0,-2.496 0.533,-3.744 1.534,-3.744"
     id="path2817" /></g>
</svg>