<?xml version="1.0" encoding="UTF-8" standalone="no"?>
<!-- Created with Inkscape (http://www.inkscape.org/) -->

<svg
   xmlns:svg="http://www.w3.org/2000/svg"
   xmlns="http://www.w3.org/2000/svg"
   version="1.1"
   width="20"
   height="20"
   viewBox="0 0 20.000001 20"
   id="Layer_1"
   xml:space="preserve"><defs
   id="defs10" />
<path
   d="m 1.3456,0.076351 c -1.9229,0.52707 -1.203,3.006 -1.2579,4.4938 0.34684,9.4028 -0.1552,6.0268 0.17868,15.43 4.6954,-0.173 -1.3413,0.031 3.2147,-0.069 0.2617,-6.839 -0.0872,2.098 0.1707,-4.862 5.0727,-1.781 13.026,3.65 16.348,-0.797 -1.405,-1.281 1.031,-12.601 -1.584,-11.696 -2.671,0.9244 -12.158,-1.9522 -15.114,-0.3575 0.1879,-1.1936 -0.3289,-2.5582 -1.9564,-2.1421 z"
   id="path3075"
   style="fill:#3d6f55" />
<g
   id="routenum"
   style="font-size:13px;font-style:normal;font-variant:normal;font-weight:bold;font-stretch:normal;text-align:center;line-height:100%;writing-mode:lr-tb;text-anchor:middle;fill:#ffffff;font-family:Bitstream Charter"><path
     d="M 4.6344,11.963 C 7.5204,10 9.0284,8.609 9.0284,6.945 c 0,-1.508 -1.105,-2.535 -2.847,-2.535 -1.872,0 -3.055,0.91 -3.055,1.989 0,0.546 0.364,0.91 0.936,0.91 0.26,0 0.533,-0.078 0.819,-0.234 V 5.398 c 0.26,-0.104 0.52,-0.156 0.754,-0.156 0.988,0 1.599,0.663 1.599,1.82 0,1.625 -1.482,3.068 -4.225,5.2 v 1.027 h 6.292 v -2.47 h -0.793 l -0.234,1.144 h -3.64"
     id="path2815" /><path
     d="m 14.151,4.4357 -2.808,0.949 v 0.663 l 1.846,-0.273 0.117,0.156 v 6.396 l -0.156,0.234 -1.3,0.078 v 0.65 h 4.511 v -0.65 l -1.222,-0.052 -0.143,-0.208 v -7.943 h -0.845"
     id="path2817" /></g>
</svg>